<svg width="58" height="63" viewBox="0 0 58 63" fill="none" xmlns="http://www.w3.org/2000/svg">
<path d="M27.1006 20.9822C28.2817 21.6626 29.6888 22.05 31.282 22.05C33.8671 22.05 36.028 21.083 37.5296 19.3914C38.9977 17.7345 39.6752 15.561 39.6752 13.3875C39.6752 12.7609 39.4341 12.16 39.0048 11.717C38.5755 11.2739 37.9932 11.025 37.3861 11.025C36.779 11.025 36.1968 11.2739 35.7675 11.717C35.3382 12.16 35.0971 12.7609 35.0971 13.3875C35.0971 14.5751 34.7308 15.5484 34.1509 16.2036C33.6015 16.821 32.7103 17.325 31.282 17.325C29.9116 17.325 29.0539 16.8147 28.4923 16.1595C27.8921 15.4102 27.5373 14.4839 27.479 13.5135V7.0875C27.479 5.20778 28.2026 3.40504 29.4904 2.07588C30.7783 0.746716 32.525 0 34.3463 0H44.0672C45.6207 0 47.1406 0.44415 48.4622 1.2852L56.9104 6.64965C57.2435 6.86115 57.5185 7.15721 57.7093 7.50957C57.9 7.86194 58.0001 8.25887 58 8.6625V13.3875C58 15.2672 57.2765 17.07 55.9886 18.3991C54.7008 19.7283 52.9541 20.475 51.1328 20.475H50.3698V50.504C53.1777 50.7812 55.3081 51.6568 56.6174 53.5406C57.4018 54.6714 57.7162 55.9345 57.8627 57.0969C58 58.2057 58 59.4153 58 60.5304V60.6375C58 61.2641 57.7588 61.865 57.3296 62.308C56.9003 62.7511 56.318 63 55.7109 63H45.7855V60.5619C45.7855 58.7601 45.7916 53.6067 41.2074 50.5795V41.7469C41.2074 41.1204 40.9662 40.5195 40.5369 40.0764C40.1076 39.6334 39.5254 39.3844 38.9183 39.3844C38.3112 39.3844 37.729 39.6334 37.2997 40.0764C36.8704 40.5195 36.6292 41.1204 36.6292 41.7469V48.8848C35.9228 48.8065 35.2117 48.7833 34.5019 48.8156C34.4226 48.8156 34.3524 48.8218 34.3066 48.825H34.2303L34.2211 48.8282C33.6148 48.8624 33.0466 49.1438 32.6413 49.6105C32.2361 50.0772 32.0271 50.6909 32.0602 51.3167C32.0934 51.9424 32.3661 52.5289 32.8183 52.9471C33.2705 53.3654 33.8651 53.5811 34.4714 53.5469H34.4805L34.5202 53.5437L34.6728 53.5374C34.798 53.5311 34.9567 53.528 35.1032 53.528C36.4217 53.528 37.2854 53.7579 37.8531 54.0634L37.9538 54.117C41.125 55.6416 41.2074 58.6498 41.2074 60.6375V63H11.7089C9.14791 63.0023 6.65698 62.1372 4.61832 60.5376C2.57967 58.9379 1.10594 56.692 0.423288 54.1445C-0.259365 51.597 -0.113219 48.8888 0.839298 46.4353C1.79181 43.9818 3.49807 41.9187 5.69623 40.5625C6.21712 40.2401 6.8408 40.1444 7.43006 40.2965C8.01933 40.4486 8.52591 40.8361 8.83836 41.3737C9.15082 41.9113 9.24355 42.555 9.09616 43.1631C8.94878 43.7713 8.57334 44.2941 8.05245 44.6166C6.71401 45.4416 5.67487 46.6971 5.09455 48.1904C4.51422 49.6837 4.42478 51.3323 4.83995 52.8832C5.25512 54.434 6.15196 55.8014 7.3928 56.7754C8.63364 57.7494 10.1499 58.2762 11.7089 58.275C12.6825 58.275 13.2868 58.0135 13.6897 57.7206C14.1139 57.4119 14.4466 56.9709 14.6999 56.4385C15.0198 55.7571 15.2134 55.0199 15.2707 54.265V54.1548L15.2829 53.7043C15.3742 51.3903 15.6395 49.087 16.0764 46.8153C16.87 42.7486 18.5089 37.4661 22.0341 33.7774C24.6223 31.0684 26.0293 27.1026 26.7557 23.1808C26.8961 22.4312 27.009 21.6941 27.1006 20.9822Z" fill="black"/>
</svg>
